<?xml version="1.0" encoding="UTF-8"?><svg id="Calque_2" xmlns="http://www.w3.org/2000/svg" xmlns:xlink="http://www.w3.org/1999/xlink" viewBox="0 0 2104.46 1296.07"><defs><style>.cls-1{fill:url(#Dégradé_sans_nom_3);}.cls-2{fill:url(#Dégradé_sans_nom_3-11);}.cls-3{fill:url(#Dégradé_sans_nom_3-13);}.cls-4{fill:url(#Dégradé_sans_nom_3-14);}.cls-5{fill:url(#Dégradé_sans_nom_3-10);}.cls-6{fill:url(#Dégradé_sans_nom_3-12);}.cls-7{fill:url(#Dégradé_sans_nom_3-8);}.cls-8{fill:url(#Dégradé_sans_nom_3-9);}.cls-9{fill:url(#Dégradé_sans_nom_3-3);}.cls-10{fill:url(#Dégradé_sans_nom_3-4);}.cls-11{fill:url(#Dégradé_sans_nom_3-5);}.cls-12{fill:url(#Dégradé_sans_nom_3-6);}.cls-13{fill:url(#Dégradé_sans_nom_3-2);}.cls-14{fill:url(#Dégradé_sans_nom_3-7);}</style><linearGradient id="Dégradé_sans_nom_3" x1="1052.61" y1="817.65" x2="1052.61" y2="0" gradientUnits="userSpaceOnUse"><stop offset="0" stop-color="#785f51"/><stop offset="1" stop-color="#c9a66f"/></linearGradient><linearGradient id="Dégradé_sans_nom_3-2" x1="102.31" y1="1231.09" x2="102.31" y2="1036.61" xlink:href="#Dégradé_sans_nom_3"/><linearGradient id="Dégradé_sans_nom_3-3" x1="304.2" y1="1231.09" x2="304.2" y2="1036.61" xlink:href="#Dégradé_sans_nom_3"/><linearGradient id="Dégradé_sans_nom_3-4" x1="480.03" y1="1231.09" x2="480.03" y2="1036.61" xlink:href="#Dégradé_sans_nom_3"/><linearGradient id="Dégradé_sans_nom_3-5" x1="666.11" y1="1231.09" x2="666.11" y2="1036.61" xlink:href="#Dégradé_sans_nom_3"/><linearGradient id="Dégradé_sans_nom_3-6" x1="839.36" y1="1231.09" x2="839.36" y2="1036.61" xlink:href="#Dégradé_sans_nom_3"/><linearGradient id="Dégradé_sans_nom_3-7" x1="1010.91" y1="1231.09" x2="1010.91" y2="1036.61" xlink:href="#Dégradé_sans_nom_3"/><linearGradient id="Dégradé_sans_nom_3-8" x1="1134.44" y1="1231.09" x2="1134.44" y2="1036.61" xlink:href="#Dégradé_sans_nom_3"/><linearGradient id="Dégradé_sans_nom_3-9" x1="1210.81" y1="1231.09" x2="1210.81" y2="1036.61" xlink:href="#Dégradé_sans_nom_3"/><linearGradient id="Dégradé_sans_nom_3-10" x1="1336.91" y1="1231.09" x2="1336.91" y2="1036.61" xlink:href="#Dégradé_sans_nom_3"/><linearGradient id="Dégradé_sans_nom_3-11" x1="1511.73" y1="1231.09" x2="1511.73" y2="1036.61" xlink:href="#Dégradé_sans_nom_3"/><linearGradient id="Dégradé_sans_nom_3-12" x1="1784.73" y1="1231.09" x2="1784.73" y2="1036.61" xlink:href="#Dégradé_sans_nom_3"/><linearGradient id="Dégradé_sans_nom_3-13" x1="1954.14" y1="1231.09" x2="1954.14" y2="1036.61" xlink:href="#Dégradé_sans_nom_3"/><linearGradient id="Dégradé_sans_nom_3-14" x1="2054.87" y1="1231.09" x2="2054.87" y2="1036.61" xlink:href="#Dégradé_sans_nom_3"/></defs><g id="Layer_1"><g><path class="cls-1" d="m765.93,0c20.36,0,42.79,1.53,67.28,4.53,24.49,3.02,49.38,8.67,74.67,16.97,25.25,8.3,50.11,19.03,74.63,32.23,24.49,13.2,46.94,29.97,67.28,50.31l-27.13,28.28c-13.58-20.36-30.17-38.27-49.76-53.73-19.61-15.44-40.73-28.44-63.33-39.02-22.61-10.54-46.38-18.26-71.25-23.18-24.87-4.88-49-7.34-72.38-7.34-48.25,0-93.86,10.38-136.83,31.1-42.99,20.74-80.3,49.2-111.98,85.38-31.66,36.18-56.72,78.6-75.18,127.22-18.5,48.63-27.71,100.49-27.71,155.5s9.96,106.88,29.97,155.5c19.97,48.63,46.52,91.04,79.71,127.22,33.18,36.2,71.05,64.66,113.67,85.38,42.57,20.74,86.51,31.1,131.77,31.1,67.84,0,128.53-17.9,182.06-53.71,53.53-35.8,94.61-84.25,123.27-145.32l37.31-80.3c-64.09-12.8-125.71-25.05-184.9-36.76-59.18-11.67-111.03-26.18-155.48-43.54-44.5-17.33-79.37-39.18-104.64-65.58-25.25-26.4-36.36-59.94-33.34-100.67,13.58,34.69,36.18,63.53,67.84,86.51,31.68,23,69.56,42.41,113.67,58.25,44.1,15.82,92.91,29.22,146.45,40.15,53.53,10.94,108.17,21.67,163.98,32.23L1350.63,12.44h39.58l340.38,791.63h-39.58c-1.51-3-2.82-5.84-3.95-8.47-1.13-2.64-2.46-5.84-3.95-9.61-27.91-39.95-62.6-73.69-104.04-101.22-41.48-27.51-86.93-51.07-136.29-70.68-49.4-19.61-101.6-36-156.62-49.2-55.06-13.18-110.11-25.07-165.13-35.63l-36.18,79.17c-28.66,63.33-70.12,114.04-124.4,152.09-54.28,38.09-117.99,57.12-191.11,57.12-54.3,0-105.39-10.74-153.26-32.23s-89.71-50.69-125.51-87.65c-35.82-36.94-64.11-80.3-84.83-130.06-20.74-49.76-31.1-102.91-31.1-159.45s10.18-109.5,30.54-158.9c20.34-49.36,48.23-92.53,83.68-129.48,35.43-36.94,76.91-66.15,124.4-87.65C660.76,10.74,711.66,0,765.93,0Zm369.81,499.85c52.77,9.82,105.17,20.76,157.21,32.81,52,12.07,101.2,26.77,147.56,44.1,46.38,17.35,88.58,38.84,126.67,64.46,38.07,25.64,69.56,56.94,94.43,93.86-52.02-119.1-103.31-237.65-153.8-355.66-50.53-117.99-101.42-236.54-152.69-355.66l-219.39,476.1Z"/><g><path class="cls-13" d="m204.61,1098.87h-36.76c-10.54-21.94-31.06-36.48-61.84-36.48-43.03,0-68.96,31.35-68.96,71.24s25.93,71.24,68.96,71.24c30.78,0,51.3-14.53,61.84-36.48h36.76c-11.97,37.9-47.88,68.96-98.32,68.96-64.12,0-106.3-46.17-106.3-103.73s42.18-103.73,106.3-103.73c50.44,0,86.35,31.06,98.32,68.96Z"/><path class="cls-9" d="m272.43,1233.38h-35.91v-208.03h35.91v88.91c7.69-16.81,24.22-26.5,46.17-26.5,34.2,0,53.29,25.08,53.29,60.42v85.21h-35.91v-79.22c0-20.23-9.12-35.05-30.49-35.05-19.38,0-33.06,13.96-33.06,34.77v79.51Z"/><path class="cls-10" d="m559.11,1091.18v142.2h-34.48v-24.51c-8.26,14.53-27.07,27.93-51.87,27.93-42.18,0-71.81-33.63-71.81-74.38s29.64-74.66,71.81-74.66c24.79,0,44.17,12.82,51.3,27.93v-24.51h35.05Zm-79.51,115.99c23.65,0,43.6-17.38,43.6-44.74s-19.95-45.03-43.6-45.03c-25.65,0-42.75,20.23-42.75,45.03s17.1,44.74,42.75,44.74Z"/><path class="cls-11" d="m634.33,1233.38h-35.91v-142.2h34.77v24.22c6.55-16.53,25.08-27.64,47.31-27.64,34.2,0,53.29,25.08,53.29,60.42v85.21h-35.91v-79.22c0-20.23-9.12-35.05-30.49-35.05-19.66,0-33.06,14.25-33.06,34.77v79.51Z"/><path class="cls-12" d="m807.59,1233.38h-35.91v-142.2h34.77v24.22c6.55-16.53,25.08-27.64,47.31-27.64,34.2,0,53.29,25.08,53.29,60.42v85.21h-35.91v-79.22c0-20.23-9.12-35.05-30.49-35.05-19.66,0-33.06,14.25-33.06,34.77v79.51Z"/><path class="cls-14" d="m971.44,1174.39c2.28,21.37,15.96,35.91,41.32,35.91,17.38,0,30.78-7.69,37.62-18.52h33.34c-9.69,25.36-37.05,45.03-70.96,45.03-48.45,0-76.66-32.2-76.66-74.66s31.06-74.38,74.95-74.38,74.66,31.06,74.66,74.95v11.68h-114.28Zm-.29-23.65h80.36c-2.28-21.94-16.81-37.33-39.9-37.33s-37.62,14.25-40.47,37.33Z"/><path class="cls-7" d="m1116.49,1233.38v-208.03h35.91v208.03h-35.91Z"/><path class="cls-8" d="m1210.81,1025.06c12.25,0,21.37,9.4,21.37,21.09s-9.12,21.09-21.37,21.09-21.37-9.12-21.37-21.09,9.4-21.09,21.37-21.09Zm-17.95,208.32v-142.2h35.91v142.2h-35.91Z"/><path class="cls-5" d="m1305.13,1233.38h-35.91v-142.2h34.77v24.22c6.55-16.53,25.08-27.64,47.31-27.64,34.2,0,53.29,25.08,53.29,60.42v85.21h-35.91v-79.22c0-20.23-9.12-35.05-30.49-35.05-19.66,0-33.06,14.25-33.06,34.77v79.51Z"/><path class="cls-2" d="m1554.48,1116.25v-25.08h35.34v140.21c0,36.76-33.34,64.69-77.51,64.69-36.76,0-65.54-16.24-76.37-48.73h35.62c6.84,13.68,20.23,21.09,40.47,21.09,24.51,0,41.89-13.39,41.89-37.05v-27.64c-8.26,14.25-26.5,26.22-49.87,26.22-42.18,0-70.39-31.63-70.39-70.96s28.21-71.24,70.39-71.24c24.51,0,43.6,12.54,50.44,28.5Zm-.57,42.75c0-25.08-19.38-41.61-43.03-41.61-25.36,0-41.61,17.67-41.61,41.61s16.24,41.32,41.61,41.32c23.65,0,43.03-16.53,43.03-41.32Z"/><path class="cls-6" d="m1883.9,1233.38h-39.61l-13.39-34.77h-92.33l-13.39,34.77h-39.61l85.21-199.48h27.93l85.21,199.48Zm-99.17-155.88l-34.77,90.62h69.53l-34.77-90.62Z"/><path class="cls-3" d="m1997.03,1125.66h-7.69c-28.78,0-42.18,16.81-42.18,44.46v63.26h-35.91v-142.2h34.77v30.78c6.84-22.51,25.93-31.92,51.01-31.92v35.62Z"/><path class="cls-4" d="m2031.79,1048.71h35.91v42.46h36.76v29.64h-36.76v64.69c0,14.82,5.7,21.37,19.66,21.37,5.98,0,10.83-1.14,15.67-2.56v28.78c-4.56,1.71-15.96,3.7-25.08,3.7-33.63,0-46.17-20.23-46.17-53.01v-62.98h-26.5v-29.64h26.5v-42.46Z"/></g></g></g></svg>